<svg width="799" height="212" viewBox="0 0 799 212" fill="none" xmlns="http://www.w3.org/2000/svg">
<path d="M634.72 62.9332L625.294 44.0799C624.734 43.0532 622.12 44.0799 622.774 45.2932L632.293 64.0532C632.853 65.1732 635.374 64.1464 634.72 62.9332ZM761.933 95.133L783.4 79.2664C783.866 78.8931 783.68 78.4264 783.119 78.3331C782.793 78.2673 782.456 78.275 782.133 78.3558C781.81 78.4365 781.509 78.5882 781.252 78.7998L759.786 94.7597C759.32 95.133 759.507 95.5063 760.066 95.693C760.735 95.7358 761.398 95.5371 761.933 95.133ZM770.613 127.146C773.319 124.72 777.24 120.986 781.067 123.506C781.337 123.661 781.642 123.743 781.954 123.743C782.265 123.743 782.571 123.661 782.84 123.506C783.027 123.413 784.053 122.853 783.587 122.48C782.382 121.779 781.036 121.356 779.648 121.243C778.259 121.129 776.862 121.329 775.56 121.826C772.853 122.76 770.613 124.72 768.467 126.68C768.094 127.053 768.187 127.519 768.747 127.612C769.073 127.679 769.41 127.671 769.732 127.59C770.056 127.51 770.357 127.358 770.613 127.146ZM616.24 91.213C614.39 91.0463 612.587 90.54 610.92 89.7197C610.252 89.3164 609.692 88.758 609.285 88.0919C608.879 87.4258 608.64 86.6715 608.587 85.8931C608.587 84.493 610.36 82.5331 608.587 81.6931C607.679 81.2914 606.674 81.1618 605.694 81.3197C604.581 81.3159 603.475 81.5054 602.427 81.8797C601.96 81.9731 601.12 82.3464 601.214 82.9064C601.307 83.4664 602.427 83.373 602.8 83.1864C603.624 82.9711 604.469 82.8459 605.32 82.813C606.067 82.813 606.907 82.9064 606.627 83.8398C606.296 84.4915 606.045 85.181 605.88 85.8931C605.806 86.6596 605.935 87.4321 606.254 88.1331C607.654 91.4931 611.387 92.2397 614.654 92.6131C614.98 92.6788 615.317 92.671 615.64 92.5903C615.963 92.5095 616.263 92.3579 616.52 92.1463C616.894 91.773 616.894 91.3064 616.24 91.213ZM640.88 144.6C639.827 149.124 639.512 153.788 639.947 158.413C640.04 159.252 642.747 158.693 642.654 157.76C642.212 153.228 642.528 148.654 643.587 144.226C643.774 143.386 641.067 143.759 640.88 144.6ZM625.76 134.519C622.765 136.235 620.382 138.846 618.947 141.986C618.428 143.445 617.772 144.851 616.987 146.186C616.648 146.869 616.132 147.449 615.494 147.866C614.654 148.52 613.534 148.147 612.6 148.147C611.085 148.047 609.567 148.308 608.172 148.908C606.777 149.508 605.544 150.431 604.574 151.599C603.665 152.665 603.07 153.963 602.856 155.348C602.642 156.732 602.816 158.149 603.36 159.44C603.64 160.093 606.254 159.159 606.067 158.693C605.518 157.368 605.366 155.913 605.632 154.504C605.897 153.095 606.567 151.794 607.56 150.76C608.018 150.231 608.596 149.819 609.246 149.56C609.895 149.3 610.597 149.199 611.294 149.266C613.032 149.47 614.795 149.246 616.427 148.613C619.04 147.399 620.16 144.88 621.28 142.359C622.559 139.112 624.85 136.363 627.813 134.519C628.373 134.239 628.094 134.053 627.72 133.96C627.021 133.911 626.328 134.109 625.76 134.519ZM621.747 121.919C623.964 121.919 625.76 120.122 625.76 117.906C625.76 115.689 623.964 113.893 621.747 113.893C619.531 113.893 617.734 115.689 617.734 117.906C617.734 120.122 619.531 121.919 621.747 121.919ZM630.8 78.7998C630.787 79.0649 630.829 79.3298 630.922 79.5785C631.014 79.8272 631.157 80.0544 631.34 80.2464C631.523 80.4384 631.744 80.5912 631.988 80.6955C632.232 80.7998 632.495 80.8534 632.76 80.8531C633.03 80.8531 633.297 80.8 633.546 80.6968C633.795 80.5936 634.021 80.4424 634.212 80.2517C634.403 80.0611 634.554 79.8347 634.657 79.5856C634.76 79.3364 634.813 79.0694 634.813 78.7998C634.814 78.5343 634.76 78.2716 634.656 78.0275C634.552 77.7833 634.399 77.563 634.207 77.3797C634.015 77.1964 633.788 77.054 633.539 76.9612C633.29 76.8684 633.025 76.8271 632.76 76.8397C632.503 76.8397 632.248 76.8904 632.01 76.9889C631.772 77.0874 631.556 77.2318 631.374 77.4138C631.192 77.5958 631.048 77.8119 630.949 78.0497C630.851 78.2875 630.8 78.5424 630.8 78.7998ZM663.84 170.64C663.864 171.242 664.12 171.812 664.556 172.229C664.991 172.646 665.57 172.88 666.173 172.88C666.512 172.949 666.862 172.941 667.198 172.857C667.533 172.775 667.846 172.618 668.114 172.399C668.382 172.18 668.597 171.905 668.746 171.593C668.969 171.122 669.029 170.589 668.914 170.08C668.8 169.572 668.518 169.116 668.114 168.786C667.846 168.567 667.533 168.411 667.198 168.328C666.862 168.244 666.512 168.237 666.173 168.306C665.554 168.306 664.961 168.552 664.523 168.99C664.086 169.427 663.84 170.021 663.84 170.64Z" fill="#34C94B"/>
<path d="M618.293 192.199C618.48 192.292 618.853 191.826 619.507 190.986C620.43 189.803 621.427 188.681 622.493 187.626C624.145 185.974 626.113 184.672 628.28 183.8L630.24 182.959L632.293 182.493C633.893 182.192 635.528 182.129 637.147 182.306L642.56 182.866L648.627 183.706C652.957 184.312 657.192 185.472 661.227 187.159L668.04 189.959C670.602 190.995 673.31 191.625 676.067 191.826C677.539 191.887 679.012 191.762 680.453 191.453C681.937 191.079 683.376 190.547 684.746 189.866C687.278 188.412 689.601 186.622 691.653 184.546C693.706 182.586 695.479 180.719 697.439 179.039C699.279 177.424 701.357 176.101 703.6 175.119C707.827 173.155 712.482 172.288 717.133 172.6C721.613 172.973 726.093 173.999 730.573 174.186C735.053 174.373 739.346 173.719 742.893 171.759C743.725 171.244 744.506 170.65 745.226 169.986L746.253 168.96L747.093 167.839C748.049 166.474 748.774 164.96 749.239 163.36C749.917 160.776 749.819 158.049 748.96 155.519C748.403 153.974 747.51 152.572 746.347 151.413C745.599 150.666 745.04 150.293 744.946 150.386C744.853 150.48 745.133 151.039 745.693 151.88C746.419 153.175 746.983 154.554 747.373 155.986C747.808 158.197 747.647 160.484 746.906 162.612C746.421 163.909 745.761 165.133 744.946 166.253L744.199 167.093L743.36 167.839C742.755 168.318 742.098 168.725 741.4 169.053C738.072 170.569 734.385 171.118 730.759 170.64C726.746 170.359 722.36 169.146 717.413 168.68C712.079 168.18 706.706 169.08 701.827 171.293C699.253 172.426 696.863 173.936 694.733 175.772C692.493 177.639 690.626 179.599 688.666 181.466C686.902 183.291 684.891 184.862 682.693 186.133C681.693 186.674 680.626 187.082 679.52 187.347C678.448 187.582 677.35 187.676 676.253 187.626C673.923 187.453 671.629 186.95 669.44 186.133L662.627 183.426C660.37 182.57 658.064 181.853 655.72 181.279L649.093 180.16L642.933 179.599C640.973 179.412 639.107 179.226 637.147 179.226C635.328 179.223 633.513 179.41 631.733 179.786C630.893 179.967 630.079 180.249 629.307 180.626L627.16 181.652C624.886 182.847 622.884 184.499 621.28 186.506C620.305 187.754 619.46 189.099 618.76 190.519C618.293 191.546 618.2 192.106 618.293 192.199ZM642.187 76.1864L640.973 75.9998C632.2 74.7864 623.427 86.4531 621.373 102.04C619.32 117.626 624.64 131.252 633.413 132.466C634.627 132.653 638.173 133.026 637.147 132.186C631.547 127.613 631.173 120.986 628.84 113.24C626.507 105.493 632.107 90.093 635.187 83.5597C638.267 77.0264 642.187 76.1864 642.187 76.1864Z" fill="#34C94B"/>
<path d="M745.693 88.6931C747.093 78.2398 744.48 67.5064 741.213 57.6131C739.44 52.0131 736.639 46.5998 732.253 42.6798C730.094 40.5771 727.751 38.6718 725.253 36.9866L723.293 35.9599C722.453 35.5865 723.479 36.0532 723.013 35.8666L721.146 34.8399C719.373 33.7199 717.599 32.5999 715.733 31.5733C714.451 30.6516 713.074 29.8694 711.626 29.2399C710.344 28.9919 709.015 29.2245 707.893 29.8933C707.24 30.1732 706.12 31.1065 707.24 31.5733H707.427C707.706 31.6665 707.147 31.3866 707.52 31.5733L708.173 31.9466L710.319 33.1599L715.266 36.1465L718.627 38.0132C721.154 39.3609 723.478 41.0575 725.532 43.0532C727.745 44.8565 729.692 46.9615 731.319 49.3065C732.939 51.7515 734.255 54.3841 735.24 57.1465C736.665 61.2427 737.849 65.4187 738.786 69.6531C740.542 76.1565 741.049 82.9341 740.279 89.6264C740.093 91.213 745.506 90.1864 745.693 88.6931ZM646.293 134.146C637.893 136.573 633.04 127.053 631.36 120.333C628.84 110.439 629.96 99.333 633.6 89.8131C635.263 85.1682 637.905 80.935 641.347 77.3998C641.456 77.3068 641.536 77.1845 641.577 77.0474C641.618 76.9102 641.62 76.7641 641.58 76.6263C641.541 76.4886 641.463 76.3651 641.355 76.2706C641.247 76.176 641.115 76.1145 640.973 76.0932C640.65 75.983 640.302 75.9684 639.971 76.0512C639.64 76.134 639.34 76.3106 639.107 76.5598C631.547 83.7465 628.28 95.0397 627.533 105.026C627.016 110.341 627.394 115.704 628.653 120.893C629.68 124.999 631.36 129.199 634.16 132.28C635.687 134.064 637.7 135.366 639.953 136.029C642.206 136.691 644.603 136.686 646.853 136.013C648.44 135.546 647.973 133.586 646.293 134.146Z" fill="#34C94B"/>
<path d="M636.493 103.066C635.543 109.232 635.669 115.516 636.867 121.639C637.707 125.933 639.293 130.693 642.56 133.68C645.827 136.666 650.307 136.573 654.133 134.987C657.96 133.4 661.6 129.48 663.933 125.466C666.826 120.179 668.783 114.432 669.72 108.479C670.918 102.168 671.044 95.6998 670.093 89.3465C669.44 84.7731 668.04 79.8265 664.96 76.2798C661.88 72.7332 658.147 72.3598 654.133 73.4798C650.12 74.5998 645.267 79.0798 642.653 83.5598C640.04 88.0398 637.427 96.2531 636.493 103.066C636.213 104.746 641.627 103.813 641.813 102.226C642.552 96.5211 644.125 90.9551 646.48 85.7064C648.16 82.1598 650.4 78.2398 653.853 76.0932L654.507 75.7198C653.947 75.9998 655.253 75.5332 654.6 75.7198L655.067 75.5332C654.32 75.7198 654.973 75.5332 655.16 75.5332C655.347 75.5332 654.973 75.6264 655.16 75.6264C655.347 75.6264 654.973 75.5332 655.44 75.6264C656.737 75.8164 657.943 76.4033 658.893 77.3064C661.88 80.0132 663.28 84.1198 664.12 87.8531C666.64 98.773 665.24 111.093 660.947 121.453C659.36 125.279 657.213 129.386 653.947 132.093C653.369 132.562 652.743 132.969 652.08 133.307C651.053 133.587 652.827 132.932 652.08 133.307L651.52 133.493C652.267 133.307 651.613 133.4 651.427 133.4H650.493C649.832 133.217 649.202 132.933 648.627 132.559C644.987 130.133 643.4 125.373 642.467 121.266C640.973 115.106 641.067 108.573 641.813 102.32C642.093 100.453 636.68 101.48 636.493 103.066ZM730.573 148.52C721.987 148.052 717.226 139.28 715.453 131.906C712.933 121.826 714.427 110.533 718.44 101.106C719.161 99.3528 720.035 97.6662 721.053 96.0664L722.36 94.1998C722.601 94.0063 722.82 93.7872 723.013 93.5464L723.199 93.3597H723.293C724.04 92.7064 723.947 91.9598 722.826 91.7731C721.465 91.5999 720.091 91.9686 719 92.7997C716.816 94.8925 715.071 97.399 713.866 100.173C711.662 104.87 710.184 109.873 709.48 115.013C707.986 124.999 708.827 136.573 715.36 144.786C716.754 146.659 718.533 148.211 720.578 149.338C722.623 150.466 724.885 151.141 727.214 151.319C728.566 151.401 729.909 151.04 731.04 150.293C731.786 149.639 731.786 148.706 730.573 148.613V148.52Z" fill="#34C94B"/>
<path d="M732.906 149.639C728.986 149.079 726.093 146.092 724.132 142.733C721.814 138.31 720.477 133.439 720.212 128.453C719.676 122.236 720.277 115.974 721.986 109.973C723.327 104.805 725.674 99.9525 728.893 95.6931C731.132 92.9864 734.306 89.9997 738.133 89.8131C741.959 89.6264 745.133 92.4264 747.186 95.4131C749.239 98.3997 751.293 104.28 751.946 109.04C752.677 115.182 752.329 121.404 750.919 127.426C749.636 133.373 747.09 138.975 743.453 143.853C740.932 147.026 737.293 150.2 732.906 149.639C732.237 149.597 731.574 149.795 731.039 150.2C730.666 150.573 730.666 150.946 731.226 151.039C741.493 152.253 748.493 141.799 751.666 133.493C753.994 127.258 755.134 120.641 755.026 113.986C754.933 108.293 753.999 102.413 751.479 97.2797C749.612 93.5464 746.72 89.9997 742.519 88.8797C738.319 87.7597 734.12 89.1598 730.666 91.5865C727.213 94.0131 723.573 99.4264 721.519 104.093C718.97 110.098 717.547 116.52 717.32 123.04C716.992 129.013 717.914 134.989 720.026 140.587C721.706 144.507 724.32 148.52 728.426 150.2C729.327 150.577 730.265 150.859 731.226 151.039C731.573 151.093 731.93 151.072 732.268 150.976C732.606 150.878 732.92 150.71 733.186 150.48C733.56 150.107 733.56 149.732 732.906 149.639Z" fill="#34C94B"/>
<path d="M725.439 117.719C723.386 133.307 728.706 146.84 737.48 148.053C746.253 149.266 755.026 137.506 757.079 121.92C759.132 106.333 753.813 92.7064 745.04 91.5864C736.266 90.4664 727.492 102.133 725.439 117.719ZM755.866 155.893C760.359 159.951 764.628 164.251 768.652 168.773C769.12 169.24 771.639 168.306 771.173 167.839C767.172 163.295 762.902 158.993 758.386 154.959C757.826 154.493 755.399 155.519 755.866 155.893Z" fill="#34C94B"/>
<path d="M736.173 150.386C736.173 150.386 738.973 152.72 743.08 155.707C747.186 158.693 748.586 157.387 748.586 157.387L749.8 154.959L743.639 146.84C742.616 147.382 741.514 147.761 740.372 147.959C739.537 148.029 738.727 148.283 738.001 148.703C737.275 149.123 736.651 149.698 736.173 150.386ZM644.893 104C644.411 108.531 644.442 113.102 644.987 117.626C645.36 120.333 646.013 123.599 647.88 125.747C649.747 127.893 651.893 127.426 653.76 126.213C655.627 124.999 657.307 122.013 658.333 119.586C659.936 115.478 661.003 111.18 661.507 106.799C662.112 102.282 662.205 97.7112 661.787 93.173C661.413 89.0664 659.92 79.7331 653.76 82.3464C650.867 83.5598 649.373 86.733 648.253 89.4397C646.477 94.1178 645.347 99.0162 644.893 104C644.8 105.026 647.507 104.466 647.6 103.626C647.999 99.6406 648.78 95.7024 649.933 91.8664C650.773 89.2531 651.8 86.3598 653.667 84.3065L654.507 83.5598L654.88 83.3731C654.973 83.2797 654.693 83.2797 654.787 83.3731C655.423 83.5655 655.979 83.9584 656.373 84.4931C657.96 86.5464 658.52 89.5331 658.893 91.9598C659.913 99.937 659.278 108.039 657.027 115.759C656.373 118.725 655.17 121.543 653.48 124.067C653.009 124.741 652.405 125.312 651.707 125.747C651.987 125.652 651.8 125.652 651.613 125.652L650.68 124.999C648.72 123.133 648.16 119.773 647.787 117.253C647.165 112.736 647.103 108.159 647.6 103.626C647.693 102.6 644.987 103.066 644.893 104Z" fill="#34C94B"/>
<path d="M741.867 149.079C741.774 149.266 741.774 149.453 741.679 149.639V149.359C741.679 149.432 741.664 149.503 741.631 149.568C741.598 149.633 741.551 149.689 741.493 149.732L741.679 149.453C741.517 149.662 741.33 149.85 741.12 150.013L741.4 149.826L740.84 150.2L741.213 150.013H741.026C740.883 150.054 740.751 150.125 740.639 150.221C740.526 150.318 740.435 150.438 740.374 150.573C740.288 150.66 740.24 150.778 740.24 150.899C740.24 151.021 740.288 151.139 740.374 151.226C740.473 151.32 740.59 151.393 740.718 151.441C740.846 151.49 740.983 151.512 741.12 151.506C741.295 151.547 741.476 151.551 741.653 151.52C741.829 151.488 741.997 151.42 742.147 151.319C742.712 151.087 743.221 150.737 743.64 150.293C743.884 150.093 744.076 149.836 744.2 149.546L744.48 148.706C744.484 148.597 744.46 148.488 744.411 148.39C744.363 148.293 744.29 148.209 744.2 148.147H743.266L742.24 148.52C742.054 148.706 741.774 148.893 741.774 149.173L741.867 149.079ZM744.106 152.067C744.012 152.253 744.012 152.44 743.919 152.626V152.346C743.919 152.418 743.902 152.491 743.87 152.555C743.838 152.62 743.791 152.676 743.733 152.72L743.919 152.44L743.36 152.999L743.639 152.813L743.08 153.186L743.453 152.999H743.266C743.123 153.039 742.991 153.111 742.878 153.208C742.765 153.304 742.675 153.424 742.613 153.559C742.528 153.646 742.48 153.764 742.48 153.886C742.48 154.008 742.528 154.126 742.613 154.213C742.712 154.307 742.83 154.381 742.958 154.428C743.086 154.476 743.223 154.498 743.36 154.493C743.713 154.53 744.069 154.464 744.387 154.306C744.934 154.042 745.437 153.696 745.879 153.279C746.066 152.999 746.347 152.813 746.44 152.533L746.72 151.692C746.723 151.583 746.699 151.475 746.651 151.378C746.602 151.28 746.53 151.195 746.44 151.133L745.972 150.946H745.506L744.48 151.319C744.292 151.506 744.012 151.692 744.012 151.973L744.106 152.067Z" fill="#34C94B"/>
<path d="M730.106 118.84C729.421 123.465 729.579 128.177 730.573 132.746C731.319 135.826 732.719 139.186 735.24 141.146C737.76 143.106 740.466 142.827 743.08 141.893C745.693 140.96 748.493 138.066 750.173 135.267C752.374 131.461 753.861 127.286 754.56 122.946C755.384 118.288 755.416 113.523 754.653 108.854C754 105.493 752.879 101.853 750.36 99.4264C747.839 96.9997 745.599 96.9997 742.893 97.7464C740.186 98.4931 736.732 101.386 734.866 104.466C732.29 108.871 730.668 113.768 730.106 118.84C730.013 119.12 732.719 118.933 732.813 118.092C733.348 113.958 734.513 109.929 736.266 106.146C737.666 103.44 739.44 100.546 742.146 98.9597C744.853 97.3731 746.159 98.773 747.653 100.173C749.146 101.573 751.013 105.4 751.666 108.199C753.415 116.351 752.533 124.848 749.146 132.466C748.023 135.54 746.126 138.272 743.639 140.399C742.897 141.02 741.988 141.41 741.026 141.52C739.897 141.453 738.818 141.028 737.946 140.306C735.24 138.346 733.933 134.799 733.279 131.72C732.331 127.239 732.173 122.627 732.813 118.092C732.813 117.906 730.2 118.092 730.106 118.84ZM732.16 91.0264C733.557 83.1406 734.213 75.1413 734.12 67.1332C734.12 61.4398 733.746 55.5599 731.88 50.1466C729.689 44.3781 726.096 39.2459 721.426 35.2133C716.528 30.9146 710.619 27.9282 704.253 26.5333C696.973 24.9467 689.786 25.4133 682.506 26.8133C671.026 29.1466 659.92 33.9066 652.08 42.9599C647.838 48.0844 644.435 53.8494 642 60.0399C640.564 63.4626 639.5 67.0297 638.826 70.6798C638.576 72.3476 638.513 74.0381 638.64 75.7198C638.64 75.9065 638.733 76.0932 638.733 76.2798C639.386 78.5198 644.8 77.1198 644.146 74.7865C644.124 74.6292 644.093 74.4734 644.053 74.3198V73.0131C644.207 70.5443 644.646 68.1015 645.36 65.7331C647.181 59.1194 650.185 52.8902 654.226 47.3466C657.258 43.0365 661.131 39.3853 665.613 36.6132C666.565 36.0073 667.564 35.4768 668.599 35.0266C669.776 34.3902 670.992 33.8291 672.239 33.3466L675.599 32.2266L679.706 31.0133C682.532 30.3043 685.4 29.7744 688.293 29.4267C691.611 29.0536 694.961 29.0536 698.28 29.4267C704.166 30.2136 709.759 32.4739 714.539 35.9981C719.32 39.5222 723.133 44.1961 725.626 49.5866C727.866 54.3465 728.426 59.7598 728.613 64.7998C728.928 73.5836 728.302 82.3758 726.746 91.0264C726.774 91.1882 726.741 91.3546 726.653 91.493C726.185 94.0131 731.692 93.2664 732.16 91.0264Z" fill="white"/>
<path d="M639.293 77.6798L644.893 78.7998C645.272 78.8394 645.654 78.7622 645.987 78.5787C646.321 78.3952 646.591 78.1141 646.76 77.7731C647.735 73.2317 649.141 68.7938 650.96 64.5198C654.04 56.5865 658.24 48.3732 664.867 42.8665C669.253 39.2266 674.666 37.5466 680.173 36.5199C686.262 35.2289 692.551 35.1972 698.653 36.4266C703.107 37.2137 707.303 39.0714 710.88 41.8399C715.616 45.5304 719.314 50.3862 721.613 55.9331C722.709 58.5894 723.431 61.385 723.759 64.2398C724.024 67.629 723.962 71.0359 723.573 74.4131C723.108 80.0162 722.361 85.5922 721.333 91.1197C721.315 91.4381 721.253 91.7524 721.146 92.0531C721.053 92.5197 721.706 92.7997 722.08 92.7997L726.466 93.2663C727.026 93.2663 727.96 93.0797 728.24 92.4264C728.52 91.773 727.96 91.4931 727.399 91.3997L723.013 91.0263L723.947 91.773C724.786 87.4797 725.346 83.0931 725.907 78.7064C726.653 71.8931 727.306 64.9865 725.439 58.3598C722.453 47.9065 714.053 38.6666 703.6 35.4933C697.778 33.8501 691.7 33.3119 685.68 33.9065C682.017 34.2657 678.393 34.9529 674.853 35.9599C671.914 36.7372 669.089 37.8983 666.453 39.4132C658.613 44.0799 653.48 52.5731 649.84 60.6932C648.278 64.2575 646.907 67.9026 645.733 71.6131C645.032 73.5935 644.471 75.6207 644.053 77.6798C644.057 77.7303 644.051 77.7812 644.035 77.8293C644.019 77.8774 643.994 77.9218 643.96 77.9597L645.827 76.9331L640.227 75.9064C639.013 75.6264 637.427 77.3997 639.293 77.6798Z" fill="#34C94B"/>
<path d="M648.44 65.8265L655.72 74.5998C656.094 75.1598 657.027 74.9732 657.493 74.7865C657.96 74.5998 658.613 73.9465 658.147 73.4798L650.96 64.7065C650.709 64.481 650.393 64.3412 650.057 64.3077C649.722 64.2741 649.384 64.3484 649.094 64.5199C648.72 64.7065 648.067 65.3598 648.44 65.8265Z" fill="#34C94B"/>
<path d="M650.96 61.1598L658.333 73.7598C658.893 74.6931 661.506 73.7598 660.853 72.6398L653.479 60.0398C652.919 59.1065 650.306 60.0398 650.96 61.1598Z" fill="#34C94B"/>
<path d="M689.693 35.4933C689.519 35.21 689.27 34.981 688.973 34.8325C688.676 34.684 688.343 34.6219 688.013 34.6533C687.453 34.5599 686.426 34.9333 686.053 34.6533C685.64 34.4406 685.162 34.3896 684.713 34.5104C684.264 34.6313 683.877 34.9151 683.626 35.3066C683.253 36.2399 682.693 37.08 682.319 38.1066L684.653 37.4533C683.253 36.7066 681.386 35.2133 679.706 36.1466C679.367 36.3729 679.089 36.6779 678.893 37.0355C678.698 37.3931 678.593 37.7927 678.586 38.2C678.306 39.2266 677.839 40.2533 677.653 41.2799L680.266 40.6266C678.866 39.32 677.373 38.2 675.973 36.9866C674.573 35.7733 673.453 36.52 673.359 37.64L673.173 44.1733L675.599 43.3332L669.906 38.5733C669.159 37.9199 667.386 38.6666 667.479 39.6933L668.413 48.9332L669.16 47.7199C670.559 47.9999 670.933 47.9999 670.466 47.6266L670.093 47.1599C669.792 46.8585 669.54 46.5121 669.346 46.1332L667.666 43.5199C666.826 42.3066 665.333 39.88 663.559 41.6532C661.786 43.4266 663.186 42.7732 663.373 43.4266C663.461 44.4995 663.648 45.5618 663.933 46.5999C664.217 48.7791 664.781 50.9123 665.613 52.9466L667.946 51.7332C665.706 50.0532 664.586 46.9733 662.813 44.8266C662.253 44.0799 660.2 44.4532 660.2 45.4799C660.48 49.4932 662.253 53.2265 662.439 57.2399L664.866 56.3999C662.565 54.5341 660.525 52.3681 658.8 49.9599C658.24 49.1199 655.906 49.7733 656.279 50.9865C657.157 54.0681 657.75 57.2235 658.053 60.4132C658.475 63.6309 658.662 66.875 658.613 70.1199L661.226 69.3732C659.92 67.4131 659.266 64.8932 658.426 62.7465C657.759 60.4487 656.852 58.2276 655.719 56.1199C655.066 55.1866 652.453 56.2132 653.2 57.3332C653.946 58.4532 655.159 61.8132 655.906 64.0532C656.653 66.2932 657.399 68.6265 658.706 70.5865C660.013 72.5465 661.319 70.8665 661.319 69.8398C661.365 66.564 661.178 63.2891 660.759 60.0399C660.457 56.7275 659.864 53.4481 658.986 50.2399L656.373 51.1732C658.174 53.7202 660.345 55.985 662.813 57.8932C663.373 58.4532 665.239 57.9866 665.239 57.0532C664.959 53.0399 663.186 49.3065 663 45.2933L660.386 45.9466C662.253 48.2799 663.373 51.4533 665.893 53.3199C666.546 53.7865 668.786 53.2265 668.319 52.1999C667.564 50.3727 667.031 48.4611 666.733 46.5066C666.546 45.3866 666.266 44.36 666.079 43.24C666.095 42.8951 666.063 42.5497 665.986 42.2132C665.893 42.12 665.893 41.9333 665.986 42.12C666.079 42.3066 663.466 42.3066 663.839 42.9599C664.207 43.5161 664.612 44.0463 665.053 44.5466C665.613 45.3866 666.173 46.2266 666.639 47.0666C667.106 47.9066 668.599 50.1466 670.373 49.3065C670.611 49.2412 670.818 49.0918 670.955 48.8861C671.093 48.6803 671.151 48.4319 671.119 48.1865L670.186 38.9466L667.853 40.0666L673.546 44.8266C674.106 45.3866 675.879 44.9199 675.973 43.9866L676.159 37.4533L673.546 38.1066C674.853 39.4132 676.439 40.5332 677.746 41.7466C679.053 42.9599 680.173 42.2132 680.359 41.0932C680.462 40.5085 680.65 39.9423 680.919 39.4132C681.161 38.8483 681.319 38.2508 681.386 37.64C681.386 37.3599 681.293 37.3599 680.826 37.64C680.359 37.9199 680.173 37.8266 680.733 38.0133L681.293 38.2933L682.599 39.0399C682.999 39.2474 683.462 39.2953 683.895 39.174C684.328 39.0527 684.699 38.7712 684.933 38.3866C685.306 37.3599 685.866 36.52 686.239 35.5866L683.906 36.2399C684.494 36.5928 685.189 36.7252 685.866 36.6133C686.146 36.6133 687.079 36.4266 687.266 36.6133C687.453 36.7999 690.533 36.6133 689.693 35.4933ZM650.96 89.1598L657.96 86.0797H656.373C655.813 85.7998 655.44 86.3598 654.973 86.7331L654.04 87.4798L652.267 89.0664C650.867 90.2798 649.56 91.4931 648.067 92.6131C646.573 93.7331 647.414 93.3597 647.787 93.8264C648.16 94.2931 649.094 94.1064 649.56 93.9197L659.08 90.2798L657.587 88.9731C653.947 91.3998 649.654 93.7331 647.133 97.4664C646.48 98.5864 648.534 98.4931 649 98.3064C652.827 96.8131 656.56 95.1331 660.2 93.3597L658.8 92.0531L652.547 96.4398C650.532 97.662 648.682 99.1361 647.04 100.826C646.013 101.946 647.974 102.226 648.72 101.946C652.547 100.173 656.467 98.5864 660.2 96.7197L658.707 95.413L651.987 100.266C649.77 101.77 647.788 103.594 646.107 105.68C645.267 106.799 647.04 107.267 647.787 106.799L660.48 99.6131L658.987 98.3064C654.134 102.133 649.373 106.053 645.547 110.907C644.614 112.119 646.48 112.399 647.227 112.026C652.173 109.693 655.44 105.12 660.2 102.506L658.427 101.48C656.187 103.626 654.04 106.053 651.8 108.2C649.292 110.428 647.01 112.897 644.987 115.573C644.333 116.507 646.013 116.693 646.48 116.6C649.094 116.039 651.334 113.706 653.48 112.119L660.76 106.706L658.707 105.773C654.134 109.786 649.56 113.986 646.76 119.493C646.2 120.52 647.974 120.613 648.627 120.333C650.607 119.175 652.426 117.763 654.04 116.133L659.92 110.813L657.68 110.066C655.347 112.399 653.2 114.827 651.147 117.253C649.094 119.679 647.6 121.826 647.04 124.72C646.76 126.027 649.094 125.373 649.56 124.906C652.733 121.826 655.907 118.747 658.987 115.573L656.747 114.827L652.173 120.986C650.96 122.666 649.84 124.346 650.12 126.4C650.4 128.453 652.92 126.959 652.827 125.747C652.733 124.533 654.134 122.107 655.253 120.613L658.987 115.573C660.107 114.173 657.493 114.079 656.747 114.827L647.32 124.253L649.747 124.44C650.307 121.639 652.08 119.493 653.853 117.346C655.627 115.2 657.773 112.96 659.92 110.813C660.004 110.717 660.061 110.601 660.088 110.477C660.114 110.353 660.109 110.224 660.071 110.102C660.034 109.981 659.966 109.871 659.874 109.783C659.783 109.695 659.67 109.632 659.547 109.6C659.222 109.511 658.879 109.507 658.552 109.588C658.225 109.67 657.925 109.835 657.68 110.066L652.454 114.827C650.943 116.364 649.25 117.712 647.414 118.84L649.28 119.679C652.08 114.359 656.56 110.346 660.947 106.426C661.413 106.053 661.227 105.586 660.76 105.306C660.466 105.191 660.147 105.156 659.835 105.205C659.524 105.255 659.231 105.386 658.987 105.586L652.454 110.439L649.28 112.773C648.363 113.699 647.245 114.402 646.013 114.827L647.6 115.853C649.593 113.238 651.845 110.83 654.32 108.666L660.667 102.133C661.787 101.106 659.733 100.64 658.987 101.013C654.227 103.626 650.96 108.293 646.107 110.533L647.787 111.653C651.427 106.893 656.093 103.16 660.76 99.4264C662.067 98.3997 660.293 97.5598 659.267 98.1198L646.667 105.306L648.347 106.426C649.997 104.371 651.947 102.578 654.134 101.106L660.48 96.533C661.88 95.5997 660.013 94.7598 658.987 95.3198L647.6 100.453L649.28 101.573C650.774 99.7998 652.827 98.5864 654.693 97.2797L660.573 93.1731C661.973 92.2397 660.107 91.3998 659.08 91.8664C655.347 93.6398 651.613 95.3198 647.88 96.8131L649.747 97.7464C650.852 96.1892 652.247 94.8585 653.853 93.8264L659.36 90.0931C659.534 90.0278 659.678 89.8997 659.763 89.734C659.848 89.5683 659.868 89.3769 659.819 89.1973C659.786 89.0783 659.725 88.9692 659.64 88.8797C659.173 88.4131 658.427 88.5998 657.867 88.7865L648.44 92.4264L649.84 93.733C651.427 92.5198 652.92 91.2131 654.413 89.9065L656.747 87.8531C657.461 87.368 658.118 86.8045 658.707 86.1731C658.987 85.6131 659.08 85.0531 658.613 84.6798C658.147 84.3065 656.747 84.6798 656 84.9598L649.747 87.6665C649.28 87.8531 648.72 88.5064 649.094 88.9731C649.467 89.4397 650.493 89.3465 650.96 89.1598Z" fill="#34C94B"/>
<path d="M661.133 73.5731C661.506 71.1465 661.88 68.8132 662.347 66.4798C662.751 64.2861 663.344 62.1314 664.12 60.0399C665.05 58.1678 666.245 56.4391 667.666 54.9065L671.96 49.8665C677.466 43.7065 684.093 37.8266 692.4 36.0532C692.866 35.96 693.706 35.4932 693.613 34.9332C693.519 34.3732 692.493 34.4666 692.026 34.5599C685.213 35.96 679.333 39.8799 674.293 44.5466C671.722 47.0872 669.291 49.7668 667.013 52.5732C664.773 55.1866 662.253 57.7999 661.133 61.0665C659.768 65.2175 658.861 69.5051 658.427 73.8532C658.333 74.9732 661.04 74.5998 661.133 73.5731Z" fill="#34C94B"/>
<path d="M42.2458 83.8V79.672H49.9578V103H45.3498V83.8H42.2458ZM54.3835 91.032C54.3835 87.3413 55.0448 84.4507 56.3675 82.36C57.7115 80.2693 59.9302 79.224 63.0235 79.224C66.1168 79.224 68.3248 80.2693 69.6475 82.36C70.9915 84.4507 71.6635 87.3413 71.6635 91.032C71.6635 94.744 70.9915 97.656 69.6475 99.768C68.3248 101.88 66.1168 102.936 63.0235 102.936C59.9302 102.936 57.7115 101.88 56.3675 99.768C55.0448 97.656 54.3835 94.744 54.3835 91.032ZM67.2475 91.032C67.2475 89.4533 67.1408 88.1307 66.9275 87.064C66.7355 85.976 66.3302 85.0907 65.7115 84.408C65.1142 83.7253 64.2182 83.384 63.0235 83.384C61.8288 83.384 60.9222 83.7253 60.3035 84.408C59.7062 85.0907 59.3008 85.976 59.0875 87.064C58.8955 88.1307 58.7995 89.4533 58.7995 91.032C58.7995 92.6533 58.8955 94.0187 59.0875 95.128C59.2795 96.216 59.6848 97.1013 60.3035 97.784C60.9222 98.4453 61.8288 98.776 63.0235 98.776C64.2182 98.776 65.1248 98.4453 65.7435 97.784C66.3622 97.1013 66.7675 96.216 66.9595 95.128C67.1515 94.0187 67.2475 92.6533 67.2475 91.032ZM75.071 91.032C75.071 87.3413 75.7323 84.4507 77.055 82.36C78.399 80.2693 80.6177 79.224 83.711 79.224C86.8043 79.224 89.0123 80.2693 90.335 82.36C91.679 84.4507 92.351 87.3413 92.351 91.032C92.351 94.744 91.679 97.656 90.335 99.768C89.0123 101.88 86.8043 102.936 83.711 102.936C80.6177 102.936 78.399 101.88 77.055 99.768C75.7323 97.656 75.071 94.744 75.071 91.032ZM87.935 91.032C87.935 89.4533 87.8283 88.1307 87.615 87.064C87.423 85.976 87.0177 85.0907 86.399 84.408C85.8017 83.7253 84.9057 83.384 83.711 83.384C82.5163 83.384 81.6097 83.7253 80.991 84.408C80.3937 85.0907 79.9883 85.976 79.775 87.064C79.583 88.1307 79.487 89.4533 79.487 91.032C79.487 92.6533 79.583 94.0187 79.775 95.128C79.967 96.216 80.3723 97.1013 80.991 97.784C81.6097 98.4453 82.5163 98.776 83.711 98.776C84.9057 98.776 85.8123 98.4453 86.431 97.784C87.0497 97.1013 87.455 96.216 87.647 95.128C87.839 94.0187 87.935 92.6533 87.935 91.032ZM119.096 80.664V84.28H113.144V103H108.664V84.28H102.712V80.664H119.096ZM132.348 85.016C133.692 85.016 134.887 85.3147 135.932 85.912C136.978 86.488 137.788 87.352 138.364 88.504C138.962 89.6347 139.26 91 139.26 92.6V103H134.78V93.208C134.78 91.8 134.428 90.7227 133.724 89.976C133.02 89.208 132.06 88.824 130.844 88.824C129.607 88.824 128.626 89.208 127.9 89.976C127.196 90.7227 126.844 91.8 126.844 93.208V103H122.364V79.32H126.844V87.48C127.42 86.712 128.188 86.1147 129.148 85.688C130.108 85.24 131.175 85.016 132.348 85.016ZM151.393 103.288C149.686 103.288 148.15 102.915 146.785 102.168C145.419 101.4 144.342 100.323 143.553 98.936C142.785 97.5493 142.401 95.9493 142.401 94.136C142.401 92.3227 142.795 90.7227 143.585 89.336C144.395 87.9493 145.494 86.8827 146.881 86.136C148.267 85.368 149.814 84.984 151.521 84.984C153.227 84.984 154.774 85.368 156.161 86.136C157.547 86.8827 158.635 87.9493 159.425 89.336C160.235 90.7227 160.641 92.3227 160.641 94.136C160.641 95.9493 160.225 97.5493 159.392 98.936C158.582 100.323 157.473 101.4 156.065 102.168C154.678 102.915 153.121 103.288 151.393 103.288ZM151.393 99.384C152.203 99.384 152.961 99.192 153.665 98.808C154.39 98.4027 154.966 97.8053 155.393 97.016C155.819 96.2267 156.033 95.2667 156.033 94.136C156.033 92.4507 155.585 91.16 154.689 90.264C153.814 89.3467 152.737 88.888 151.457 88.888C150.177 88.888 149.099 89.3467 148.225 90.264C147.371 91.16 146.945 92.4507 146.945 94.136C146.945 95.8213 147.361 97.1227 148.193 98.04C149.046 98.936 150.113 99.384 151.393 99.384ZM180.663 85.272V103H176.151V100.76C175.575 101.528 174.817 102.136 173.879 102.584C172.961 103.011 171.959 103.224 170.871 103.224C169.484 103.224 168.257 102.936 167.191 102.36C166.124 101.763 165.281 100.899 164.663 99.768C164.065 98.616 163.767 97.2507 163.767 95.672V85.272H168.247V95.032C168.247 96.44 168.599 97.528 169.303 98.296C170.007 99.0427 170.967 99.416 172.183 99.416C173.42 99.416 174.391 99.0427 175.095 98.296C175.799 97.528 176.151 96.44 176.151 95.032V85.272H180.663ZM191.867 103.288C190.416 103.288 189.115 103.032 187.963 102.52C186.811 101.987 185.894 101.272 185.211 100.376C184.55 99.48 184.187 98.488 184.123 97.4H188.635C188.72 98.0827 189.051 98.648 189.627 99.096C190.224 99.544 190.96 99.768 191.835 99.768C192.688 99.768 193.35 99.5973 193.819 99.256C194.31 98.9147 194.555 98.4773 194.555 97.944C194.555 97.368 194.256 96.9413 193.659 96.664C193.083 96.3653 192.155 96.0453 190.875 95.704C189.552 95.384 188.464 95.0533 187.611 94.712C186.779 94.3707 186.054 93.848 185.435 93.144C184.838 92.44 184.539 91.4907 184.539 90.296C184.539 89.3147 184.816 88.4187 185.371 87.608C185.947 86.7973 186.758 86.1573 187.803 85.688C188.87 85.2187 190.118 84.984 191.547 84.984C193.659 84.984 195.344 85.5173 196.603 86.584C197.862 87.6293 198.555 89.048 198.683 90.84H194.395C194.331 90.136 194.032 89.5813 193.499 89.176C192.987 88.7493 192.294 88.536 191.419 88.536C190.608 88.536 189.979 88.6853 189.531 88.984C189.104 89.2827 188.891 89.6987 188.891 90.232C188.891 90.8293 189.19 91.288 189.787 91.608C190.384 91.9067 191.312 92.216 192.571 92.536C193.851 92.856 194.907 93.1867 195.739 93.528C196.571 93.8693 197.286 94.4027 197.883 95.128C198.502 95.832 198.822 96.7707 198.843 97.944C198.843 98.968 198.555 99.8853 197.979 100.696C197.424 101.507 196.614 102.147 195.547 102.616C194.502 103.064 193.275 103.288 191.867 103.288ZM201.368 94.072C201.368 92.28 201.72 90.6907 202.424 89.304C203.15 87.9173 204.121 86.8507 205.337 86.104C206.574 85.3573 207.95 84.984 209.465 84.984C210.787 84.984 211.939 85.2507 212.921 85.784C213.923 86.3173 214.723 86.9893 215.321 87.8V85.272H219.833V103H215.321V100.408C214.745 101.24 213.945 101.933 212.921 102.488C211.918 103.021 210.755 103.288 209.433 103.288C207.939 103.288 206.574 102.904 205.337 102.136C204.121 101.368 203.15 100.291 202.424 98.904C201.72 97.496 201.368 95.8853 201.368 94.072ZM215.321 94.136C215.321 93.048 215.107 92.12 214.681 91.352C214.254 90.5627 213.678 89.9653 212.953 89.56C212.227 89.1333 211.449 88.92 210.617 88.92C209.785 88.92 209.017 89.1227 208.312 89.528C207.609 89.9333 207.033 90.5307 206.585 91.32C206.158 92.088 205.945 93.0053 205.945 94.072C205.945 95.1387 206.158 96.0773 206.585 96.888C207.033 97.6773 207.609 98.2853 208.312 98.712C209.038 99.1387 209.806 99.352 210.617 99.352C211.449 99.352 212.227 99.1493 212.953 98.744C213.678 98.3173 214.254 97.72 214.681 96.952C215.107 96.1627 215.321 95.224 215.321 94.136ZM234.032 85.016C236.144 85.016 237.851 85.688 239.152 87.032C240.453 88.3547 241.104 90.2107 241.104 92.6V103H236.624V93.208C236.624 91.8 236.272 90.7227 235.568 89.976C234.864 89.208 233.904 88.824 232.688 88.824C231.451 88.824 230.469 89.208 229.744 89.976C229.04 90.7227 228.688 91.8 228.688 93.208V103H224.208V85.272H228.688V87.48C229.285 86.712 230.043 86.1147 230.96 85.688C231.899 85.24 232.923 85.016 234.032 85.016ZM244.212 94.072C244.212 92.28 244.564 90.6907 245.268 89.304C245.994 87.9173 246.975 86.8507 248.212 86.104C249.45 85.3573 250.826 84.984 252.34 84.984C253.492 84.984 254.591 85.24 255.636 85.752C256.682 86.2427 257.514 86.904 258.132 87.736V79.32H262.676V103H258.132V100.376C257.578 101.251 256.799 101.955 255.796 102.488C254.794 103.021 253.631 103.288 252.308 103.288C250.815 103.288 249.45 102.904 248.212 102.136C246.975 101.368 245.994 100.291 245.268 98.904C244.564 97.496 244.212 95.8853 244.212 94.072ZM258.164 94.136C258.164 93.048 257.951 92.12 257.524 91.352C257.098 90.5627 256.522 89.9653 255.796 89.56C255.071 89.1333 254.292 88.92 253.46 88.92C252.628 88.92 251.86 89.1227 251.156 89.528C250.452 89.9333 249.876 90.5307 249.428 91.32C249.002 92.088 248.788 93.0053 248.788 94.072C248.788 95.1387 249.002 96.0773 249.428 96.888C249.876 97.6773 250.452 98.2853 251.156 98.712C251.882 99.1387 252.65 99.352 253.46 99.352C254.292 99.352 255.071 99.1493 255.796 98.744C256.522 98.3173 257.098 97.72 257.524 96.952C257.951 96.1627 258.164 95.224 258.164 94.136ZM282.389 103.224C280.831 103.224 279.423 102.957 278.165 102.424C276.927 101.891 275.946 101.123 275.221 100.12C274.495 99.1173 274.122 97.9333 274.101 96.568H278.901C278.965 97.4853 279.285 98.2107 279.861 98.744C280.458 99.2773 281.269 99.544 282.293 99.544C283.338 99.544 284.159 99.2987 284.757 98.808C285.354 98.296 285.653 97.6347 285.653 96.824C285.653 96.1627 285.45 95.6187 285.045 95.192C284.639 94.7653 284.127 94.4347 283.509 94.2C282.911 93.944 282.079 93.6667 281.013 93.368C279.562 92.9413 278.378 92.5253 277.461 92.12C276.565 91.6933 275.786 91.064 275.125 90.232C274.485 89.3787 274.165 88.248 274.165 86.84C274.165 85.5173 274.495 84.3653 275.157 83.384C275.818 82.4027 276.746 81.656 277.941 81.144C279.135 80.6107 280.501 80.344 282.037 80.344C284.341 80.344 286.207 80.9093 287.637 82.04C289.087 83.1493 289.887 84.7067 290.037 86.712H285.109C285.066 85.944 284.735 85.3147 284.117 84.824C283.519 84.312 282.719 84.056 281.717 84.056C280.842 84.056 280.138 84.28 279.605 84.728C279.093 85.176 278.837 85.8267 278.837 86.68C278.837 87.2773 279.029 87.7787 279.413 88.184C279.818 88.568 280.309 88.888 280.885 89.144C281.482 89.3787 282.314 89.656 283.381 89.976C284.831 90.4027 286.015 90.8293 286.933 91.256C287.85 91.6827 288.639 92.3227 289.301 93.176C289.962 94.0293 290.293 95.1493 290.293 96.536C290.293 97.7307 289.983 98.84 289.365 99.864C288.746 100.888 287.839 101.709 286.645 102.328C285.45 102.925 284.031 103.224 282.389 103.224ZM302.049 103.288C300.342 103.288 298.806 102.915 297.441 102.168C296.075 101.4 294.998 100.323 294.209 98.936C293.441 97.5493 293.057 95.9493 293.057 94.136C293.057 92.3227 293.451 90.7227 294.241 89.336C295.051 87.9493 296.15 86.8827 297.537 86.136C298.923 85.368 300.47 84.984 302.177 84.984C303.883 84.984 305.43 85.368 306.817 86.136C308.203 86.8827 309.291 87.9493 310.081 89.336C310.891 90.7227 311.297 92.3227 311.297 94.136C311.297 95.9493 310.881 97.5493 310.049 98.936C309.238 100.323 308.129 101.4 306.721 102.168C305.334 102.915 303.777 103.288 302.049 103.288ZM302.049 99.384C302.859 99.384 303.617 99.192 304.321 98.808C305.046 98.4027 305.622 97.8053 306.049 97.016C306.475 96.2267 306.689 95.2667 306.689 94.136C306.689 92.4507 306.241 91.16 305.345 90.264C304.47 89.3467 303.393 88.888 302.113 88.888C300.833 88.888 299.755 89.3467 298.881 90.264C298.027 91.16 297.601 92.4507 297.601 94.136C297.601 95.8213 298.017 97.1227 298.849 98.04C299.702 98.936 300.769 99.384 302.049 99.384ZM324.407 85.016C326.519 85.016 328.226 85.688 329.527 87.032C330.828 88.3547 331.479 90.2107 331.479 92.6V103H326.999V93.208C326.999 91.8 326.647 90.7227 325.943 89.976C325.239 89.208 324.279 88.824 323.063 88.824C321.826 88.824 320.844 89.208 320.119 89.976C319.415 90.7227 319.063 91.8 319.063 93.208V103H314.583V85.272H319.063V87.48C319.66 86.712 320.418 86.1147 321.335 85.688C322.274 85.24 323.298 85.016 324.407 85.016ZM342.683 84.984C344.006 84.984 345.169 85.2507 346.171 85.784C347.174 86.296 347.963 86.968 348.539 87.8V85.272H353.051V103.128C353.051 104.771 352.721 106.232 352.059 107.512C351.398 108.813 350.406 109.837 349.083 110.584C347.761 111.352 346.161 111.736 344.283 111.736C341.766 111.736 339.697 111.149 338.075 109.976C336.475 108.803 335.569 107.203 335.355 105.176H339.803C340.038 105.987 340.539 106.627 341.307 107.096C342.097 107.587 343.046 107.832 344.155 107.832C345.457 107.832 346.513 107.437 347.323 106.648C348.134 105.88 348.539 104.707 348.539 103.128V100.376C347.963 101.208 347.163 101.901 346.139 102.456C345.137 103.011 343.985 103.288 342.683 103.288C341.19 103.288 339.825 102.904 338.587 102.136C337.35 101.368 336.369 100.291 335.643 98.904C334.939 97.496 334.587 95.8853 334.587 94.072C334.587 92.28 334.939 90.6907 335.643 89.304C336.369 87.9173 337.339 86.8507 338.555 86.104C339.793 85.3573 341.169 84.984 342.683 84.984ZM348.539 94.136C348.539 93.048 348.326 92.12 347.899 91.352C347.473 90.5627 346.897 89.9653 346.171 89.56C345.446 89.1333 344.667 88.92 343.835 88.92C343.003 88.92 342.235 89.1227 341.531 89.528C340.827 89.9333 340.251 90.5307 339.803 91.32C339.377 92.088 339.163 93.0053 339.163 94.072C339.163 95.1387 339.377 96.0773 339.803 96.888C340.251 97.6773 340.827 98.2853 341.531 98.712C342.257 99.1387 343.025 99.352 343.835 99.352C344.667 99.352 345.446 99.1493 346.171 98.744C346.897 98.3173 347.473 97.72 347.899 96.952C348.326 96.1627 348.539 95.224 348.539 94.136ZM364.211 103.288C362.76 103.288 361.459 103.032 360.307 102.52C359.155 101.987 358.237 101.272 357.555 100.376C356.893 99.48 356.531 98.488 356.467 97.4H360.979C361.064 98.0827 361.395 98.648 361.971 99.096C362.568 99.544 363.304 99.768 364.179 99.768C365.032 99.768 365.693 99.5973 366.163 99.256C366.653 98.9147 366.899 98.4773 366.899 97.944C366.899 97.368 366.6 96.9413 366.003 96.664C365.427 96.3653 364.499 96.0453 363.219 95.704C361.896 95.384 360.808 95.0533 359.955 94.712C359.123 94.3707 358.397 93.848 357.779 93.144C357.181 92.44 356.883 91.4907 356.883 90.296C356.883 89.3147 357.16 88.4187 357.715 87.608C358.291 86.7973 359.101 86.1573 360.147 85.688C361.213 85.2187 362.461 84.984 363.891 84.984C366.003 84.984 367.688 85.5173 368.947 86.584C370.205 87.6293 370.899 89.048 371.027 90.84H366.739C366.675 90.136 366.376 89.5813 365.843 89.176C365.331 88.7493 364.637 88.536 363.763 88.536C362.952 88.536 362.323 88.6853 361.875 88.984C361.448 89.2827 361.235 89.6987 361.235 90.232C361.235 90.8293 361.533 91.288 362.131 91.608C362.728 91.9067 363.656 92.216 364.915 92.536C366.195 92.856 367.251 93.1867 368.083 93.528C368.915 93.8693 369.629 94.4027 370.227 95.128C370.845 95.832 371.165 96.7707 371.187 97.944C371.187 98.968 370.899 99.8853 370.323 100.696C369.768 101.507 368.957 102.147 367.891 102.616C366.845 103.064 365.619 103.288 364.211 103.288ZM379.76 98.296L376.016 107.288H373.136L375.216 98.296H379.76ZM389.462 94.072C389.462 92.28 389.814 90.6907 390.518 89.304C391.244 87.9173 392.214 86.8507 393.43 86.104C394.668 85.3573 396.044 84.984 397.558 84.984C398.881 84.984 400.033 85.2507 401.014 85.784C402.017 86.3173 402.817 86.9893 403.414 87.8V85.272H407.926V103H403.414V100.408C402.838 101.24 402.038 101.933 401.014 102.488C400.012 103.021 398.849 103.288 397.526 103.288C396.033 103.288 394.668 102.904 393.43 102.136C392.214 101.368 391.244 100.291 390.518 98.904C389.814 97.496 389.462 95.8853 389.462 94.072ZM403.414 94.136C403.414 93.048 403.201 92.12 402.774 91.352C402.348 90.5627 401.772 89.9653 401.046 89.56C400.321 89.1333 399.542 88.92 398.71 88.92C397.878 88.92 397.11 89.1227 396.406 89.528C395.702 89.9333 395.126 90.5307 394.678 91.32C394.252 92.088 394.038 93.0053 394.038 94.072C394.038 95.1387 394.252 96.0773 394.678 96.888C395.126 97.6773 395.702 98.2853 396.406 98.712C397.132 99.1387 397.9 99.352 398.71 99.352C399.542 99.352 400.321 99.1493 401.046 98.744C401.772 98.3173 402.348 97.72 402.774 96.952C403.201 96.1627 403.414 95.224 403.414 94.136ZM411.15 94.072C411.15 92.28 411.502 90.6907 412.206 89.304C412.931 87.9173 413.912 86.8507 415.15 86.104C416.387 85.3573 417.763 84.984 419.278 84.984C420.43 84.984 421.528 85.24 422.574 85.752C423.619 86.2427 424.451 86.904 425.07 87.736V79.32H429.614V103H425.07V100.376C424.515 101.251 423.736 101.955 422.734 102.488C421.731 103.021 420.568 103.288 419.246 103.288C417.752 103.288 416.387 102.904 415.15 102.136C413.912 101.368 412.931 100.291 412.206 98.904C411.502 97.496 411.15 95.8853 411.15 94.072ZM425.102 94.136C425.102 93.048 424.888 92.12 424.462 91.352C424.035 90.5627 423.459 89.9653 422.734 89.56C422.008 89.1333 421.23 88.92 420.398 88.92C419.566 88.92 418.798 89.1227 418.094 89.528C417.39 89.9333 416.814 90.5307 416.366 91.32C415.939 92.088 415.726 93.0053 415.726 94.072C415.726 95.1387 415.939 96.0773 416.366 96.888C416.814 97.6773 417.39 98.2853 418.094 98.712C418.819 99.1387 419.587 99.352 420.398 99.352C421.23 99.352 422.008 99.1493 422.734 98.744C423.459 98.3173 424.035 97.72 424.462 96.952C424.888 96.1627 425.102 95.224 425.102 94.136ZM447.621 89.688V93.464H434.053V89.688H447.621ZM460.774 88.952H457.67V103H453.126V88.952H451.11V85.272H453.126V84.376C453.126 82.2 453.744 80.6 454.982 79.576C456.219 78.552 458.086 78.072 460.582 78.136V81.912C459.494 81.8907 458.736 82.072 458.31 82.456C457.883 82.84 457.67 83.5333 457.67 84.536V85.272H460.774V88.952ZM468.157 88.024C468.733 87.0853 469.479 86.3493 470.397 85.816C471.335 85.2827 472.402 85.016 473.597 85.016V89.72H472.413C471.005 89.72 469.938 90.0507 469.213 90.712C468.509 91.3733 468.157 92.5253 468.157 94.168V103H463.677V85.272H468.157V88.024ZM493.094 93.752C493.094 94.392 493.052 94.968 492.966 95.48H480.006C480.113 96.76 480.561 97.7627 481.35 98.488C482.14 99.2133 483.11 99.576 484.262 99.576C485.926 99.576 487.11 98.8613 487.814 97.432H492.646C492.134 99.1387 491.153 100.547 489.702 101.656C488.252 102.744 486.47 103.288 484.358 103.288C482.652 103.288 481.116 102.915 479.75 102.168C478.406 101.4 477.35 100.323 476.582 98.936C475.836 97.5493 475.462 95.9493 475.462 94.136C475.462 92.3013 475.836 90.6907 476.582 89.304C477.329 87.9173 478.374 86.8507 479.718 86.104C481.062 85.3573 482.609 84.984 484.358 84.984C486.044 84.984 487.548 85.3467 488.87 86.072C490.214 86.7973 491.249 87.832 491.974 89.176C492.721 90.4987 493.094 92.024 493.094 93.752ZM488.454 92.472C488.433 91.32 488.017 90.4027 487.206 89.72C486.396 89.016 485.404 88.664 484.23 88.664C483.121 88.664 482.182 89.0053 481.414 89.688C480.668 90.3493 480.209 91.2773 480.038 92.472H488.454ZM512.844 93.752C512.844 94.392 512.802 94.968 512.716 95.48H499.756C499.863 96.76 500.311 97.7627 501.1 98.488C501.89 99.2133 502.86 99.576 504.012 99.576C505.676 99.576 506.86 98.8613 507.564 97.432H512.396C511.884 99.1387 510.903 100.547 509.452 101.656C508.002 102.744 506.22 103.288 504.108 103.288C502.402 103.288 500.866 102.915 499.5 102.168C498.156 101.4 497.1 100.323 496.332 98.936C495.586 97.5493 495.212 95.9493 495.212 94.136C495.212 92.3013 495.586 90.6907 496.332 89.304C497.079 87.9173 498.124 86.8507 499.468 86.104C500.812 85.3573 502.359 84.984 504.108 84.984C505.794 84.984 507.298 85.3467 508.62 86.072C509.964 86.7973 510.999 87.832 511.724 89.176C512.471 90.4987 512.844 92.024 512.844 93.752ZM508.204 92.472C508.183 91.32 507.767 90.4027 506.956 89.72C506.146 89.016 505.154 88.664 503.98 88.664C502.871 88.664 501.932 89.0053 501.164 89.688C500.418 90.3493 499.959 91.2773 499.788 92.472H508.204Z" fill="white"/>
<path d="M12.576 155.224C10.4853 155.224 8.56533 154.733 6.816 153.752C5.06667 152.771 3.68 151.416 2.656 149.688C1.632 147.939 1.12 145.965 1.12 143.768C1.12 141.592 1.632 139.64 2.656 137.912C3.68 136.163 5.06667 134.797 6.816 133.816C8.56533 132.835 10.4853 132.344 12.576 132.344C14.688 132.344 16.608 132.835 18.336 133.816C20.0853 134.797 21.4613 136.163 22.464 137.912C23.488 139.64 24 141.592 24 143.768C24 145.965 23.488 147.939 22.464 149.688C21.4613 151.416 20.0853 152.771 18.336 153.752C16.5867 154.733 14.6667 155.224 12.576 155.224ZM12.576 151.224C13.92 151.224 15.104 150.925 16.128 150.328C17.152 149.709 17.952 148.835 18.528 147.704C19.104 146.573 19.392 145.261 19.392 143.768C19.392 142.275 19.104 140.973 18.528 139.864C17.952 138.733 17.152 137.869 16.128 137.272C15.104 136.675 13.92 136.376 12.576 136.376C11.232 136.376 10.0373 136.675 8.992 137.272C7.968 137.869 7.168 138.733 6.592 139.864C6.016 140.973 5.728 142.275 5.728 143.768C5.728 145.261 6.016 146.573 6.592 147.704C7.168 148.835 7.968 149.709 8.992 150.328C10.0373 150.925 11.232 151.224 12.576 151.224ZM34.725 150.872L39.205 137.272H43.973L37.413 155H31.973L25.445 137.272H30.245L34.725 150.872ZM62.9693 145.752C62.9693 146.392 62.9266 146.968 62.8413 147.48H49.8813C49.9879 148.76 50.4359 149.763 51.2253 150.488C52.0146 151.213 52.9853 151.576 54.1373 151.576C55.8013 151.576 56.9853 150.861 57.6893 149.432H62.5213C62.0093 151.139 61.0279 152.547 59.5773 153.656C58.1266 154.744 56.3453 155.288 54.2333 155.288C52.5266 155.288 50.9906 154.915 49.6253 154.168C48.2813 153.4 47.2253 152.323 46.4573 150.936C45.7106 149.549 45.3372 147.949 45.3372 146.136C45.3372 144.301 45.7106 142.691 46.4573 141.304C47.2039 139.917 48.2493 138.851 49.5933 138.104C50.9373 137.357 52.4839 136.984 54.2333 136.984C55.9186 136.984 57.4226 137.347 58.7453 138.072C60.0893 138.797 61.1239 139.832 61.8493 141.176C62.5959 142.499 62.9693 144.024 62.9693 145.752ZM58.3293 144.472C58.3079 143.32 57.8919 142.403 57.0813 141.72C56.2706 141.016 55.2786 140.664 54.1053 140.664C52.9959 140.664 52.0573 141.005 51.2893 141.688C50.5426 142.349 50.0839 143.277 49.9133 144.472H58.3293ZM70.7193 140.024C71.2953 139.085 72.0419 138.349 72.9593 137.816C73.8979 137.283 74.9646 137.016 76.1593 137.016V141.72H74.9753C73.5673 141.72 72.5006 142.051 71.7753 142.712C71.0713 143.373 70.7193 144.525 70.7193 146.168V155H66.2393V137.272H70.7193V140.024ZM92.0178 140.952V149.528C92.0178 150.125 92.1564 150.563 92.4338 150.84C92.7324 151.096 93.2231 151.224 93.9058 151.224H95.9858V155H93.1698C89.3938 155 87.5058 153.165 87.5058 149.496V140.952H85.3938V137.272H87.5058V132.888H92.0178V137.272H95.9858V140.952H92.0178ZM109.192 137.016C110.536 137.016 111.731 137.315 112.776 137.912C113.821 138.488 114.632 139.352 115.208 140.504C115.805 141.635 116.104 143 116.104 144.6V155H111.624V145.208C111.624 143.8 111.272 142.723 110.568 141.976C109.864 141.208 108.904 140.824 107.688 140.824C106.451 140.824 105.469 141.208 104.744 141.976C104.04 142.723 103.688 143.8 103.688 145.208V155H99.208V131.32H103.688V139.48C104.264 138.712 105.032 138.115 105.992 137.688C106.952 137.24 108.019 137.016 109.192 137.016ZM128.236 155.288C126.53 155.288 124.994 154.915 123.628 154.168C122.263 153.4 121.186 152.323 120.396 150.936C119.628 149.549 119.244 147.949 119.244 146.136C119.244 144.323 119.639 142.723 120.428 141.336C121.239 139.949 122.338 138.883 123.724 138.136C125.111 137.368 126.658 136.984 128.364 136.984C130.071 136.984 131.618 137.368 133.004 138.136C134.391 138.883 135.479 139.949 136.268 141.336C137.079 142.723 137.484 144.323 137.484 146.136C137.484 147.949 137.068 149.549 136.236 150.936C135.426 152.323 134.316 153.4 132.908 154.168C131.522 154.915 129.964 155.288 128.236 155.288ZM128.236 151.384C129.047 151.384 129.804 151.192 130.508 150.808C131.234 150.403 131.81 149.805 132.236 149.016C132.663 148.227 132.876 147.267 132.876 146.136C132.876 144.451 132.428 143.16 131.532 142.264C130.658 141.347 129.58 140.888 128.3 140.888C127.02 140.888 125.943 141.347 125.068 142.264C124.215 143.16 123.788 144.451 123.788 146.136C123.788 147.821 124.204 149.123 125.036 150.04C125.89 150.936 126.956 151.384 128.236 151.384ZM157.507 137.272V155H152.995V152.76C152.419 153.528 151.661 154.136 150.723 154.584C149.805 155.011 148.803 155.224 147.715 155.224C146.328 155.224 145.101 154.936 144.035 154.36C142.968 153.763 142.125 152.899 141.507 151.768C140.909 150.616 140.611 149.251 140.611 147.672V137.272H145.091V147.032C145.091 148.44 145.443 149.528 146.147 150.296C146.851 151.043 147.811 151.416 149.027 151.416C150.264 151.416 151.235 151.043 151.939 150.296C152.643 149.528 152.995 148.44 152.995 147.032V137.272H157.507ZM168.711 155.288C167.26 155.288 165.959 155.032 164.807 154.52C163.655 153.987 162.737 153.272 162.055 152.376C161.393 151.48 161.031 150.488 160.967 149.4H165.479C165.564 150.083 165.895 150.648 166.471 151.096C167.068 151.544 167.804 151.768 168.679 151.768C169.532 151.768 170.193 151.597 170.663 151.256C171.153 150.915 171.399 150.477 171.399 149.944C171.399 149.368 171.1 148.941 170.503 148.664C169.927 148.365 168.999 148.045 167.719 147.704C166.396 147.384 165.308 147.053 164.455 146.712C163.623 146.371 162.897 145.848 162.279 145.144C161.681 144.44 161.383 143.491 161.383 142.296C161.383 141.315 161.66 140.419 162.215 139.608C162.791 138.797 163.601 138.157 164.647 137.688C165.713 137.219 166.961 136.984 168.391 136.984C170.503 136.984 172.188 137.517 173.447 138.584C174.705 139.629 175.399 141.048 175.527 142.84H171.239C171.175 142.136 170.876 141.581 170.343 141.176C169.831 140.749 169.137 140.536 168.263 140.536C167.452 140.536 166.823 140.685 166.375 140.984C165.948 141.283 165.735 141.699 165.735 142.232C165.735 142.829 166.033 143.288 166.631 143.608C167.228 143.907 168.156 144.216 169.415 144.536C170.695 144.856 171.751 145.187 172.583 145.528C173.415 145.869 174.129 146.403 174.727 147.128C175.345 147.832 175.665 148.771 175.687 149.944C175.687 150.968 175.399 151.885 174.823 152.696C174.268 153.507 173.457 154.147 172.391 154.616C171.345 155.064 170.119 155.288 168.711 155.288ZM178.212 146.072C178.212 144.28 178.564 142.691 179.268 141.304C179.994 139.917 180.964 138.851 182.18 138.104C183.418 137.357 184.794 136.984 186.308 136.984C187.631 136.984 188.783 137.251 189.764 137.784C190.767 138.317 191.567 138.989 192.164 139.8V137.272H196.676V155H192.164V152.408C191.588 153.24 190.788 153.933 189.764 154.488C188.762 155.021 187.599 155.288 186.276 155.288C184.783 155.288 183.418 154.904 182.18 154.136C180.964 153.368 179.994 152.291 179.268 150.904C178.564 149.496 178.212 147.885 178.212 146.072ZM192.164 146.136C192.164 145.048 191.951 144.12 191.524 143.352C191.098 142.563 190.522 141.965 189.796 141.56C189.071 141.133 188.292 140.92 187.46 140.92C186.628 140.92 185.86 141.123 185.156 141.528C184.452 141.933 183.876 142.531 183.428 143.32C183.002 144.088 182.788 145.005 182.788 146.072C182.788 147.139 183.002 148.077 183.428 148.888C183.876 149.677 184.452 150.285 185.156 150.712C185.882 151.139 186.65 151.352 187.46 151.352C188.292 151.352 189.071 151.149 189.796 150.744C190.522 150.317 191.098 149.72 191.524 148.952C191.951 148.163 192.164 147.224 192.164 146.136ZM210.876 137.016C212.988 137.016 214.694 137.688 215.996 139.032C217.297 140.355 217.948 142.211 217.948 144.6V155H213.468V145.208C213.468 143.8 213.116 142.723 212.412 141.976C211.708 141.208 210.748 140.824 209.532 140.824C208.294 140.824 207.313 141.208 206.588 141.976C205.884 142.723 205.532 143.8 205.532 145.208V155H201.052V137.272H205.532V139.48C206.129 138.712 206.886 138.115 207.804 137.688C208.742 137.24 209.766 137.016 210.876 137.016ZM221.056 146.072C221.056 144.28 221.408 142.691 222.112 141.304C222.837 139.917 223.819 138.851 225.056 138.104C226.293 137.357 227.669 136.984 229.184 136.984C230.336 136.984 231.435 137.24 232.48 137.752C233.525 138.243 234.357 138.904 234.976 139.736V131.32H239.52V155H234.976V152.376C234.421 153.251 233.643 153.955 232.64 154.488C231.637 155.021 230.475 155.288 229.152 155.288C227.659 155.288 226.293 154.904 225.056 154.136C223.819 153.368 222.837 152.291 222.112 150.904C221.408 149.496 221.056 147.885 221.056 146.072ZM235.008 146.136C235.008 145.048 234.795 144.12 234.368 143.352C233.941 142.563 233.365 141.965 232.64 141.56C231.915 141.133 231.136 140.92 230.304 140.92C229.472 140.92 228.704 141.123 228 141.528C227.296 141.933 226.72 142.531 226.272 143.32C225.845 144.088 225.632 145.005 225.632 146.072C225.632 147.139 225.845 148.077 226.272 148.888C226.72 149.677 227.296 150.285 228 150.712C228.725 151.139 229.493 151.352 230.304 151.352C231.136 151.352 231.915 151.149 232.64 150.744C233.365 150.317 233.941 149.72 234.368 148.952C234.795 148.163 235.008 147.224 235.008 146.136ZM250.68 155.288C249.229 155.288 247.928 155.032 246.776 154.52C245.624 153.987 244.706 153.272 244.024 152.376C243.362 151.48 243 150.488 242.936 149.4H247.448C247.533 150.083 247.864 150.648 248.44 151.096C249.037 151.544 249.773 151.768 250.648 151.768C251.501 151.768 252.162 151.597 252.632 151.256C253.122 150.915 253.368 150.477 253.368 149.944C253.368 149.368 253.069 148.941 252.472 148.664C251.896 148.365 250.968 148.045 249.688 147.704C248.365 147.384 247.277 147.053 246.424 146.712C245.592 146.371 244.866 145.848 244.248 145.144C243.65 144.44 243.352 143.491 243.352 142.296C243.352 141.315 243.629 140.419 244.184 139.608C244.76 138.797 245.57 138.157 246.616 137.688C247.682 137.219 248.93 136.984 250.36 136.984C252.472 136.984 254.157 137.517 255.416 138.584C256.674 139.629 257.368 141.048 257.496 142.84H253.208C253.144 142.136 252.845 141.581 252.312 141.176C251.8 140.749 251.106 140.536 250.232 140.536C249.421 140.536 248.792 140.685 248.344 140.984C247.917 141.283 247.704 141.699 247.704 142.232C247.704 142.829 248.002 143.288 248.6 143.608C249.197 143.907 250.125 144.216 251.384 144.536C252.664 144.856 253.72 145.187 254.552 145.528C255.384 145.869 256.098 146.403 256.696 147.128C257.314 147.832 257.634 148.771 257.656 149.944C257.656 150.968 257.368 151.885 256.792 152.696C256.237 153.507 255.426 154.147 254.36 154.616C253.314 155.064 252.088 155.288 250.68 155.288ZM273.438 139.832C274.014 139.021 274.803 138.349 275.806 137.816C276.83 137.261 277.993 136.984 279.294 136.984C280.809 136.984 282.174 137.357 283.39 138.104C284.627 138.851 285.598 139.917 286.302 141.304C287.027 142.669 287.39 144.259 287.39 146.072C287.39 147.885 287.027 149.496 286.302 150.904C285.598 152.291 284.627 153.368 283.39 154.136C282.174 154.904 280.809 155.288 279.294 155.288C277.993 155.288 276.841 155.021 275.838 154.488C274.857 153.955 274.057 153.283 273.438 152.472V163.448H268.958V137.272H273.438V139.832ZM282.814 146.072C282.814 145.005 282.59 144.088 282.142 143.32C281.715 142.531 281.139 141.933 280.414 141.528C279.71 141.123 278.942 140.92 278.11 140.92C277.299 140.92 276.531 141.133 275.806 141.56C275.102 141.965 274.526 142.563 274.078 143.352C273.651 144.141 273.438 145.069 273.438 146.136C273.438 147.203 273.651 148.131 274.078 148.92C274.526 149.709 275.102 150.317 275.806 150.744C276.531 151.149 277.299 151.352 278.11 151.352C278.942 151.352 279.71 151.139 280.414 150.712C281.139 150.285 281.715 149.677 282.142 148.888C282.59 148.099 282.814 147.16 282.814 146.072ZM298.518 155.288C296.811 155.288 295.275 154.915 293.91 154.168C292.544 153.4 291.467 152.323 290.678 150.936C289.91 149.549 289.526 147.949 289.526 146.136C289.526 144.323 289.92 142.723 290.71 141.336C291.52 139.949 292.619 138.883 294.006 138.136C295.392 137.368 296.939 136.984 298.646 136.984C300.352 136.984 301.899 137.368 303.286 138.136C304.672 138.883 305.76 139.949 306.55 141.336C307.36 142.723 307.766 144.323 307.766 146.136C307.766 147.949 307.35 149.549 306.517 150.936C305.707 152.323 304.598 153.4 303.19 154.168C301.803 154.915 300.246 155.288 298.518 155.288ZM298.518 151.384C299.328 151.384 300.086 151.192 300.79 150.808C301.515 150.403 302.091 149.805 302.518 149.016C302.944 148.227 303.158 147.267 303.158 146.136C303.158 144.451 302.71 143.16 301.814 142.264C300.939 141.347 299.862 140.888 298.582 140.888C297.302 140.888 296.224 141.347 295.35 142.264C294.496 143.16 294.07 144.451 294.07 146.136C294.07 147.821 294.486 149.123 295.318 150.04C296.171 150.936 297.238 151.384 298.518 151.384ZM309.9 146.072C309.9 144.28 310.252 142.691 310.956 141.304C311.681 139.917 312.662 138.851 313.9 138.104C315.137 137.357 316.513 136.984 318.028 136.984C319.18 136.984 320.278 137.24 321.324 137.752C322.369 138.243 323.201 138.904 323.82 139.736V131.32H328.364V155H323.82V152.376C323.265 153.251 322.486 153.955 321.484 154.488C320.481 155.021 319.318 155.288 317.996 155.288C316.502 155.288 315.137 154.904 313.9 154.136C312.662 153.368 311.681 152.291 310.956 150.904C310.252 149.496 309.9 147.885 309.9 146.072ZM323.852 146.136C323.852 145.048 323.638 144.12 323.212 143.352C322.785 142.563 322.209 141.965 321.484 141.56C320.758 141.133 319.98 140.92 319.148 140.92C318.316 140.92 317.548 141.123 316.844 141.528C316.14 141.933 315.564 142.531 315.116 143.32C314.689 144.088 314.476 145.005 314.476 146.072C314.476 147.139 314.689 148.077 315.116 148.888C315.564 149.677 316.14 150.285 316.844 150.712C317.569 151.139 318.337 151.352 319.148 151.352C319.98 151.352 320.758 151.149 321.484 150.744C322.209 150.317 322.785 149.72 323.212 148.952C323.638 148.163 323.852 147.224 323.852 146.136ZM331.587 146.136C331.587 144.301 331.961 142.701 332.707 141.336C333.454 139.949 334.489 138.883 335.811 138.136C337.134 137.368 338.649 136.984 340.355 136.984C342.553 136.984 344.366 137.539 345.795 138.648C347.246 139.736 348.217 141.272 348.707 143.256H343.875C343.619 142.488 343.182 141.891 342.563 141.464C341.966 141.016 341.219 140.792 340.323 140.792C339.043 140.792 338.03 141.261 337.283 142.2C336.537 143.117 336.163 144.429 336.163 146.136C336.163 147.821 336.537 149.133 337.283 150.072C338.03 150.989 339.043 151.448 340.323 151.448C342.137 151.448 343.321 150.637 343.875 149.016H348.707C348.217 150.936 347.246 152.461 345.795 153.592C344.345 154.723 342.531 155.288 340.355 155.288C338.649 155.288 337.134 154.915 335.811 154.168C334.489 153.4 333.454 152.333 332.707 150.968C331.961 149.581 331.587 147.971 331.587 146.136ZM350.837 146.072C350.837 144.28 351.189 142.691 351.893 141.304C352.619 139.917 353.589 138.851 354.805 138.104C356.043 137.357 357.419 136.984 358.933 136.984C360.256 136.984 361.408 137.251 362.389 137.784C363.392 138.317 364.192 138.989 364.789 139.8V137.272H369.301V155H364.789V152.408C364.213 153.24 363.413 153.933 362.389 154.488C361.387 155.021 360.224 155.288 358.901 155.288C357.408 155.288 356.043 154.904 354.805 154.136C353.589 153.368 352.619 152.291 351.893 150.904C351.189 149.496 350.837 147.885 350.837 146.072ZM364.789 146.136C364.789 145.048 364.576 144.12 364.149 143.352C363.723 142.563 363.147 141.965 362.421 141.56C361.696 141.133 360.917 140.92 360.085 140.92C359.253 140.92 358.485 141.123 357.781 141.528C357.077 141.933 356.501 142.531 356.053 143.32C355.627 144.088 355.413 145.005 355.413 146.072C355.413 147.139 355.627 148.077 356.053 148.888C356.501 149.677 357.077 150.285 357.781 150.712C358.507 151.139 359.275 151.352 360.085 151.352C360.917 151.352 361.696 151.149 362.421 150.744C363.147 150.317 363.723 149.72 364.149 148.952C364.576 148.163 364.789 147.224 364.789 146.136ZM380.461 155.288C379.01 155.288 377.709 155.032 376.557 154.52C375.405 153.987 374.487 153.272 373.805 152.376C373.143 151.48 372.781 150.488 372.717 149.4H377.229C377.314 150.083 377.645 150.648 378.221 151.096C378.818 151.544 379.554 151.768 380.429 151.768C381.282 151.768 381.943 151.597 382.413 151.256C382.903 150.915 383.149 150.477 383.149 149.944C383.149 149.368 382.85 148.941 382.253 148.664C381.677 148.365 380.749 148.045 379.469 147.704C378.146 147.384 377.058 147.053 376.205 146.712C375.373 146.371 374.647 145.848 374.029 145.144C373.431 144.44 373.133 143.491 373.133 142.296C373.133 141.315 373.41 140.419 373.965 139.608C374.541 138.797 375.351 138.157 376.397 137.688C377.463 137.219 378.711 136.984 380.141 136.984C382.253 136.984 383.938 137.517 385.197 138.584C386.455 139.629 387.149 141.048 387.277 142.84H382.989C382.925 142.136 382.626 141.581 382.093 141.176C381.581 140.749 380.887 140.536 380.013 140.536C379.202 140.536 378.573 140.685 378.125 140.984C377.698 141.283 377.485 141.699 377.485 142.232C377.485 142.829 377.783 143.288 378.381 143.608C378.978 143.907 379.906 144.216 381.165 144.536C382.445 144.856 383.501 145.187 384.333 145.528C385.165 145.869 385.879 146.403 386.477 147.128C387.095 147.832 387.415 148.771 387.437 149.944C387.437 150.968 387.149 151.885 386.573 152.696C386.018 153.507 385.207 154.147 384.141 154.616C383.095 155.064 381.869 155.288 380.461 155.288ZM396.33 140.952V149.528C396.33 150.125 396.469 150.563 396.746 150.84C397.045 151.096 397.536 151.224 398.218 151.224H400.298V155H397.482C393.706 155 391.818 153.165 391.818 149.496V140.952H389.706V137.272H391.818V132.888H396.33V137.272H400.298V140.952H396.33ZM427.626 145.752C427.626 146.392 427.583 146.968 427.498 147.48H414.538C414.644 148.76 415.092 149.763 415.882 150.488C416.671 151.213 417.642 151.576 418.794 151.576C420.458 151.576 421.642 150.861 422.346 149.432H427.178C426.666 151.139 425.684 152.547 424.234 153.656C422.783 154.744 421.002 155.288 418.89 155.288C417.183 155.288 415.647 154.915 414.282 154.168C412.938 153.4 411.882 152.323 411.114 150.936C410.367 149.549 409.993 147.949 409.993 146.136C409.993 144.301 410.367 142.691 411.114 141.304C411.86 139.917 412.906 138.851 414.25 138.104C415.594 137.357 417.14 136.984 418.89 136.984C420.575 136.984 422.079 137.347 423.402 138.072C424.746 138.797 425.78 139.832 426.506 141.176C427.252 142.499 427.626 144.024 427.626 145.752ZM422.986 144.472C422.964 143.32 422.548 142.403 421.738 141.72C420.927 141.016 419.935 140.664 418.762 140.664C417.652 140.664 416.714 141.005 415.946 141.688C415.199 142.349 414.74 143.277 414.57 144.472H422.986ZM435.376 139.832C435.952 139.021 436.741 138.349 437.744 137.816C438.768 137.261 439.93 136.984 441.232 136.984C442.746 136.984 444.112 137.357 445.328 138.104C446.565 138.851 447.536 139.917 448.24 141.304C448.965 142.669 449.328 144.259 449.328 146.072C449.328 147.885 448.965 149.496 448.24 150.904C447.536 152.291 446.565 153.368 445.328 154.136C444.112 154.904 442.746 155.288 441.232 155.288C439.93 155.288 438.778 155.021 437.776 154.488C436.794 153.955 435.994 153.283 435.376 152.472V163.448H430.896V137.272H435.376V139.832ZM444.752 146.072C444.752 145.005 444.528 144.088 444.08 143.32C443.653 142.531 443.077 141.933 442.352 141.528C441.648 141.123 440.88 140.92 440.048 140.92C439.237 140.92 438.469 141.133 437.744 141.56C437.04 141.965 436.464 142.563 436.016 143.352C435.589 144.141 435.376 145.069 435.376 146.136C435.376 147.203 435.589 148.131 436.016 148.92C436.464 149.709 437.04 150.317 437.744 150.744C438.469 151.149 439.237 151.352 440.048 151.352C440.88 151.352 441.648 151.139 442.352 150.712C443.077 150.285 443.653 149.677 444.08 148.888C444.528 148.099 444.752 147.16 444.752 146.072ZM454.855 135.16C454.066 135.16 453.404 134.915 452.871 134.424C452.359 133.912 452.103 133.283 452.103 132.536C452.103 131.789 452.359 131.171 452.871 130.68C453.404 130.168 454.066 129.912 454.855 129.912C455.644 129.912 456.295 130.168 456.807 130.68C457.34 131.171 457.607 131.789 457.607 132.536C457.607 133.283 457.34 133.912 456.807 134.424C456.295 134.915 455.644 135.16 454.855 135.16ZM457.063 137.272V155H452.583V137.272H457.063ZM468.273 155.288C466.823 155.288 465.521 155.032 464.369 154.52C463.217 153.987 462.3 153.272 461.617 152.376C460.956 151.48 460.593 150.488 460.529 149.4H465.041C465.127 150.083 465.457 150.648 466.033 151.096C466.631 151.544 467.367 151.768 468.241 151.768C469.095 151.768 469.756 151.597 470.225 151.256C470.716 150.915 470.961 150.477 470.961 149.944C470.961 149.368 470.663 148.941 470.065 148.664C469.489 148.365 468.561 148.045 467.281 147.704C465.959 147.384 464.871 147.053 464.017 146.712C463.185 146.371 462.46 145.848 461.841 145.144C461.244 144.44 460.945 143.491 460.945 142.296C460.945 141.315 461.223 140.419 461.777 139.608C462.353 138.797 463.164 138.157 464.209 137.688C465.276 137.219 466.524 136.984 467.953 136.984C470.065 136.984 471.751 137.517 473.009 138.584C474.268 139.629 474.961 141.048 475.089 142.84H470.801C470.737 142.136 470.439 141.581 469.905 141.176C469.393 140.749 468.7 140.536 467.825 140.536C467.015 140.536 466.385 140.685 465.937 140.984C465.511 141.283 465.297 141.699 465.297 142.232C465.297 142.829 465.596 143.288 466.193 143.608C466.791 143.907 467.719 144.216 468.977 144.536C470.257 144.856 471.313 145.187 472.145 145.528C472.977 145.869 473.692 146.403 474.289 147.128C474.908 147.832 475.228 148.771 475.249 149.944C475.249 150.968 474.961 151.885 474.385 152.696C473.831 153.507 473.02 154.147 471.953 154.616C470.908 155.064 469.681 155.288 468.273 155.288ZM486.799 155.288C485.092 155.288 483.556 154.915 482.191 154.168C480.825 153.4 479.748 152.323 478.959 150.936C478.191 149.549 477.807 147.949 477.807 146.136C477.807 144.323 478.201 142.723 478.991 141.336C479.801 139.949 480.9 138.883 482.287 138.136C483.673 137.368 485.22 136.984 486.927 136.984C488.633 136.984 490.18 137.368 491.567 138.136C492.953 138.883 494.041 139.949 494.831 141.336C495.641 142.723 496.047 144.323 496.047 146.136C496.047 147.949 495.631 149.549 494.799 150.936C493.988 152.323 492.879 153.4 491.471 154.168C490.084 154.915 488.527 155.288 486.799 155.288ZM486.799 151.384C487.609 151.384 488.367 151.192 489.071 150.808C489.796 150.403 490.372 149.805 490.799 149.016C491.225 148.227 491.439 147.267 491.439 146.136C491.439 144.451 490.991 143.16 490.095 142.264C489.22 141.347 488.143 140.888 486.863 140.888C485.583 140.888 484.505 141.347 483.631 142.264C482.777 143.16 482.351 144.451 482.351 146.136C482.351 147.821 482.767 149.123 483.599 150.04C484.452 150.936 485.519 151.384 486.799 151.384ZM498.181 146.072C498.181 144.28 498.533 142.691 499.237 141.304C499.962 139.917 500.944 138.851 502.181 138.104C503.418 137.357 504.794 136.984 506.309 136.984C507.461 136.984 508.56 137.24 509.605 137.752C510.65 138.243 511.482 138.904 512.101 139.736V131.32H516.645V155H512.101V152.376C511.546 153.251 510.768 153.955 509.765 154.488C508.762 155.021 507.6 155.288 506.277 155.288C504.784 155.288 503.418 154.904 502.181 154.136C500.944 153.368 499.962 152.291 499.237 150.904C498.533 149.496 498.181 147.885 498.181 146.072ZM512.133 146.136C512.133 145.048 511.92 144.12 511.493 143.352C511.066 142.563 510.49 141.965 509.765 141.56C509.04 141.133 508.261 140.92 507.429 140.92C506.597 140.92 505.829 141.123 505.125 141.528C504.421 141.933 503.845 142.531 503.397 143.32C502.97 144.088 502.757 145.005 502.757 146.072C502.757 147.139 502.97 148.077 503.397 148.888C503.845 149.677 504.421 150.285 505.125 150.712C505.85 151.139 506.618 151.352 507.429 151.352C508.261 151.352 509.04 151.149 509.765 150.744C510.49 150.317 511.066 149.72 511.493 148.952C511.92 148.163 512.133 147.224 512.133 146.136ZM537.501 145.752C537.501 146.392 537.458 146.968 537.373 147.48H524.413C524.519 148.76 524.967 149.763 525.757 150.488C526.546 151.213 527.517 151.576 528.669 151.576C530.333 151.576 531.517 150.861 532.221 149.432H537.053C536.541 151.139 535.559 152.547 534.109 153.656C532.658 154.744 530.877 155.288 528.765 155.288C527.058 155.288 525.522 154.915 524.157 154.168C522.813 153.4 521.757 152.323 520.989 150.936C520.242 149.549 519.868 147.949 519.868 146.136C519.868 144.301 520.242 142.691 520.989 141.304C521.735 139.917 522.781 138.851 524.125 138.104C525.469 137.357 527.015 136.984 528.765 136.984C530.45 136.984 531.954 137.347 533.277 138.072C534.621 138.797 535.655 139.832 536.381 141.176C537.127 142.499 537.501 144.024 537.501 145.752ZM532.861 144.472C532.839 143.32 532.423 142.403 531.613 141.72C530.802 141.016 529.81 140.664 528.637 140.664C527.527 140.664 526.589 141.005 525.821 141.688C525.074 142.349 524.615 143.277 524.445 144.472H532.861ZM547.555 155.288C546.104 155.288 544.803 155.032 543.651 154.52C542.499 153.987 541.581 153.272 540.899 152.376C540.237 151.48 539.875 150.488 539.811 149.4H544.323C544.408 150.083 544.739 150.648 545.315 151.096C545.912 151.544 546.648 151.768 547.523 151.768C548.376 151.768 549.037 151.597 549.507 151.256C549.997 150.915 550.243 150.477 550.243 149.944C550.243 149.368 549.944 148.941 549.347 148.664C548.771 148.365 547.843 148.045 546.562 147.704C545.24 147.384 544.152 147.053 543.299 146.712C542.467 146.371 541.741 145.848 541.123 145.144C540.525 144.44 540.227 143.491 540.227 142.296C540.227 141.315 540.504 140.419 541.059 139.608C541.635 138.797 542.445 138.157 543.491 137.688C544.557 137.219 545.805 136.984 547.235 136.984C549.347 136.984 551.032 137.517 552.291 138.584C553.549 139.629 554.243 141.048 554.371 142.84H550.083C550.019 142.136 549.72 141.581 549.187 141.176C548.675 140.749 547.981 140.536 547.107 140.536C546.296 140.536 545.667 140.685 545.219 140.984C544.792 141.283 544.579 141.699 544.579 142.232C544.579 142.829 544.877 143.288 545.475 143.608C546.072 143.907 547 144.216 548.259 144.536C549.539 144.856 550.595 145.187 551.427 145.528C552.259 145.869 552.973 146.403 553.571 147.128C554.189 147.832 554.509 148.771 554.531 149.944C554.531 150.968 554.243 151.885 553.667 152.696C553.112 153.507 552.301 154.147 551.235 154.616C550.189 155.064 548.963 155.288 547.555 155.288Z" fill="white"/>
</svg>
